# xmcd
#
# Track frame offsets:
#	150
#	26057
#	44515
#	61500
#	79102
#	98527
#	116720
#	131752
#
# Disc length: 2350 seconds
#
# Revision: 6
# Processed by: cddbd v1.5.2PL0 Copyright (c) Steve Scherf et al.
# Submitted via: audiograbber 1.83.01
#
DISCID=61092c08
DTITLE=Status Quo - Hello
DYEAR=1973
DGENRE=Rock
TTITLE0=Roll Over Lay Down
TTITLE1=Claudie
TTITLE2=Reason For Living
TTITLE3=Blue Eyed Lady
TTITLE4=Caroline
TTITLE5=Softer Ride
TTITLE6=And It's Better Now
TTITLE7=Forty-Five Hundred Times
EXTD=
EXTT0=
EXTT1=
EXTT2=
EXTT3=
EXTT4=
EXTT5=
EXTT6=
EXTT7=
PLAYORDER=
